<?xml version="1.0" encoding="UTF-8" standalone="no"?> <!-- Created with Vectornator for iOS (http://vectornator.io/) --><!DOCTYPE svg PUBLIC "-//W3C//DTD SVG 1.1//EN" "http://www.w3.org/Graphics/SVG/1.1/DTD/svg11.dtd">
<svg style="fill-rule:evenodd;clip-rule:evenodd;stroke-linecap:round;stroke-linejoin:round;" xmlns:vectornator="http://vectornator.io" xmlns:xlink="http://www.w3.org/1999/xlink" xmlns="http://www.w3.org/2000/svg" xml:space="preserve" version="1.1" viewBox="0 0 64 64">
<metadata>
<vectornator:setting key="DimensionsVisible" value="1"/>
<vectornator:setting key="SnapToGrid" value="0"/>
<vectornator:setting key="SnapToPoints" value="0"/>
<vectornator:setting key="GuidesVisible" value="1"/>
<vectornator:setting key="RulersVisible" value="1"/>
<vectornator:setting key="SnapToEdges" value="0"/>
<vectornator:setting key="DisplayWhiteBackground" value="0"/>
<vectornator:setting key="SnapToGuides" value="1"/>
<vectornator:setting key="GridSpacing" value="36"/>
<vectornator:setting key="Units" value="Pixels"/>
<vectornator:setting key="DynamicGuides" value="0"/>
<vectornator:setting key="New" value="1"/>
</metadata>
<defs/>
<g id="レイヤー 1" vectornator:layerName="レイヤー 1">
<g opacity="1">
<path stroke="#375d81" stroke-width="2.5" d="M50.6765+8.5538C44.2216+8.5538+37.3984+11.4186+33.5272+15.9407L33.5272+55.4461C37.3984+50.922+44.2216+48.0572+50.6765+48.0572C57.1278+48.0572+62.4777+48.0572+62.4777+48.0572L62.4777+8.5538C62.4777+8.5538+57.1278+8.5538+50.6765+8.5538Z" fill="#f3f4f5" stroke-linecap="round" opacity="1" stroke-linejoin="round"/>
<path stroke="#375d81" stroke-width="2.5" d="M13.3235+8.5538C6.87217+8.5538+1.52225+8.5538+1.52225+8.5538L1.52225+48.0574C1.52225+48.0574+6.87229+48.0574+13.3235+48.0574C19.7784+48.0574+26.6016+50.9222+30.4728+55.4462L30.4728+15.9406C26.6016+11.4185+19.7784+8.5538+13.3235+8.5538Z" fill="#f3f4f5" stroke-linecap="round" opacity="1" stroke-linejoin="round"/>
</g>
</g>
</svg>
